<svg xmlns="http://www.w3.org/2000/svg" viewBox="0 0 256 96" role="img" aria-label="Go">
  <path fill="#00ADD8" d="M70.4 34.8c-1.3 0-1.6-.7-.9-1.8l4.7-6c.7-1 2.4-1.8 3.7-1.8h79.9c1.3 0 1.6 1 .9 2l-3.8 5.8c-.7 1.1-2.4 2-3.7 2H70.4Zm-33.8 20.5c-1.3 0-1.6-.8-.9-1.8l4.7-6c.7-1 2.4-1.8 3.7-1.8h101.8c1.3 0 1.9 1 1.6 2.2l-1.8 5.4c-.4 1.2-1.8 2.2-3.1 2.2h-106Zm54 20.4c-1.3 0-1.6-.8-.9-1.8l3.1-5.6c.7-1.1 2.2-2 3.5-2h45.2c1.3 0 1.9 1 1.6 2.2l-1.1 5.2c-.2 1.2-1.6 2.2-2.9 2.2H90.6Z"/>
  <path fill="#00ADD8" d="M188.8 23.8c-14.5 0-25.8 7.8-29.5 20.5-4.4 15.2 5.1 28 22.2 28 14.4 0 25.7-7.9 29.4-20.7 4.4-15.2-5-27.8-22.1-27.8Zm-4.6 36.2c-8.4 0-12.7-6.4-10.5-14.1 1.7-6 6.9-9.8 13.1-9.8 8.4 0 12.7 6.4 10.5 14.1-1.7 5.9-6.9 9.8-13.1 9.8Zm50.4-36.2c-14.5 0-25.8 7.8-29.5 20.5-4.4 15.2 5.1 28 22.2 28 14.4 0 25.7-7.9 29.4-20.7 4.4-15.2-5-27.8-22.1-27.8ZM230 60c-8.4 0-12.7-6.4-10.5-14.1 1.7-6 6.9-9.8 13.1-9.8 8.4 0 12.7 6.4 10.5 14.1-1.7 5.9-6.9 9.8-13.1 9.8Z"/>
</svg>
